<?xml version="1.0" encoding="utf-8"?>
<!-- Generator: Adobe Illustrator 22.1.0, SVG Export Plug-In . SVG Version: 6.00 Build 0)  -->
<svg version="1.1"
	 id="Ebene_1" xmlns:cc="http://creativecommons.org/ns#" xmlns:dc="http://purl.org/dc/elements/1.1/" xmlns:inkscape="http://www.inkscape.org/namespaces/inkscape" xmlns:rdf="http://www.w3.org/1999/02/22-rdf-syntax-ns#" xmlns:sodipodi="http://sodipodi.sourceforge.net/DTD/sodipodi-0.dtd" xmlns:svg="http://www.w3.org/2000/svg"
	 xmlns="http://www.w3.org/2000/svg" xmlns:xlink="http://www.w3.org/1999/xlink" x="0px" y="0px" viewBox="0 0 100 98.2"
	 style="enable-background:new 0 0 100 98.2;" xml:space="preserve">
<style type="text/css">
	.st0{fill:#36EBB4;}
</style>
<g transform="translate(0,-952.36218)">
	<path class="st0" d="M50,958.4c-16,0-29,13-29,29v15.9c-5.4,3.3-10,8.1-10,15.1c0,1.1,0.9,2,2,2h35v4.2c-5.1,0.9-9,5.4-9,10.8
		c0,6.1,4.9,11,11,11s11-4.9,11-11c0-5.4-3.9-9.8-9-10.8v-4.2h27c1.1,0,2-0.9,2-2c0-1.1-0.9-2-2-2c0,0,0,0-0.1,0H50H15.3
		c0.8-4.5,4.1-7.7,8.7-10.3c0.6-0.4,1-1,1-1.7v-17c0-13.9,11.1-25,25-25s25,11.1,25,25v17c0,0.7,0.4,1.4,1,1.7c5.2,3,9,6.7,9,12.3
		c0,1.1,0.9,2,2,2c1.1,0,2-0.9,2-2c0,0,0,0,0-0.1c0-7-4.6-11.8-10-15.1v-15.9C79,971.4,66,958.4,50,958.4z M50,1028.4
		c3.9,0,7,3.1,7,7c0,3.9-3.1,7-7,7s-7-3.1-7-7C43,1031.5,46.1,1028.4,50,1028.4z"/>
</g>
</svg>
