<?xml version="1.0" encoding="utf-8"?>
<!-- Generator: Adobe Illustrator 22.1.0, SVG Export Plug-In . SVG Version: 6.00 Build 0)  -->
<svg version="1.1"
	 id="Ebene_1" xmlns:cc="http://creativecommons.org/ns#" xmlns:dc="http://purl.org/dc/elements/1.1/" xmlns:inkscape="http://www.inkscape.org/namespaces/inkscape" xmlns:rdf="http://www.w3.org/1999/02/22-rdf-syntax-ns#" xmlns:sodipodi="http://sodipodi.sourceforge.net/DTD/sodipodi-0.dtd" xmlns:svg="http://www.w3.org/2000/svg"
	 xmlns="http://www.w3.org/2000/svg" xmlns:xlink="http://www.w3.org/1999/xlink" x="0px" y="0px" viewBox="0 0 100 99.6"
	 style="enable-background:new 0 0 100 99.6;" xml:space="preserve">
<style type="text/css">
	.st0{fill:#36EBB4;}
</style>
<g transform="translate(0,-952.36218)">
	<path class="st0" d="M50,958.4c-16,0-29,13-29,29c0,5.8,1.7,11.1,4.6,15.7l14.7,22.9c-2.3,0.7-4.2,1.7-5.8,3
		c-2,1.7-3.4,3.9-3.4,6.4c0,3.5,2.6,6.3,6,8.1c3.4,1.8,8,2.9,13,2.9s9.5-1,13-2.9c3.4-1.8,6-4.6,6-8.1c0-2.5-1.4-4.8-3.5-6.4
		c-1.6-1.3-3.5-2.3-5.8-3.1l14.7-22.8c1.4-2.2,2.5-4.6,3.3-7.1c0.3-1.1-0.3-2.2-1.3-2.5c-1.1-0.3-2.2,0.3-2.5,1.3
		c-0.7,2.2-1.6,4.2-2.8,6.1l-21,32.8l-21-32.8c-2.5-3.9-4-8.5-4-13.5c0-13.8,11.2-25,25-25s25,11.2,25,25c0,1.1,0.9,2,2,2
		c1.1,0,2-0.9,2-2c0,0,0,0,0-0.1C79,971.4,66,958.4,50,958.4z M50,975.4c-6.6,0-12,5.4-12,12s5.4,12,12,12s12-5.4,12-12
		S56.6,975.4,50,975.4z M50,979.4c4.4,0,8,3.6,8,8s-3.6,8-8,8s-8-3.6-8-8S45.6,979.4,50,979.4z M42.5,1029.4l5.8,9
		c0.6,0.9,1.8,1.2,2.8,0.6c0.2-0.2,0.5-0.4,0.6-0.6l5.8-9c2.3,0.7,4.2,1.6,5.5,2.6c1.4,1.2,2,2.3,2,3.3c0,1.5-1.2,3.2-3.9,4.6
		c-2.7,1.4-6.7,2.4-11.1,2.4s-8.4-1-11.1-2.4c-2.7-1.4-3.9-3.1-3.9-4.6c0-1.1,0.6-2.2,2-3.3C38.2,1031,40.2,1030.1,42.5,1029.4z"/>
</g>
</svg>
