<?xml version="1.0" encoding="utf-8"?>
<!-- Generator: Adobe Illustrator 22.1.0, SVG Export Plug-In . SVG Version: 6.00 Build 0)  -->
<svg version="1.1"
	 id="Ebene_1" xmlns:cc="http://creativecommons.org/ns#" xmlns:dc="http://purl.org/dc/elements/1.1/" xmlns:inkscape="http://www.inkscape.org/namespaces/inkscape" xmlns:rdf="http://www.w3.org/1999/02/22-rdf-syntax-ns#" xmlns:sodipodi="http://sodipodi.sourceforge.net/DTD/sodipodi-0.dtd" xmlns:svg="http://www.w3.org/2000/svg"
	 xmlns="http://www.w3.org/2000/svg" xmlns:xlink="http://www.w3.org/1999/xlink" x="0px" y="0px" viewBox="0 0 100 98.3"
	 style="enable-background:new 0 0 100 98.3;" xml:space="preserve">
<style type="text/css">
	.st0{fill:#36EBB4;}
</style>
<g transform="translate(0,-952.36218)">
	<path class="st0" d="M23.8,963.3c-1,0.1-1.8,1-1.8,2v8h-7c-4.9,0-9,4.1-9,9v50c0,4.9,4.1,9,9,9h62c1.1,0,2-0.9,2-2c0-1.1-0.9-2-2-2
		c0,0,0,0-0.1,0H15c-2.5,0-5-2.5-5-5v-41h80v41c0,2.5-2.5,5-5,5c-1.1,0-2,0.9-2,2c0,1.1,0.9,2,2,2c0,0,0,0,0.1,0c4.9,0,9-4.1,9-9
		v-50c0-4.9-4.1-9-9-9h-7v-8c0-1.1-0.9-2-2-2c-0.1,0-0.2,0-0.3,0c-1,0.1-1.8,1-1.8,2v8H26v-8c0-1.1-0.9-2-2-2
		C24,963.3,23.9,963.3,23.8,963.3z M15,977.4h70c2.5,0,5,2.5,5,5v5H10v-5C10,979.8,12.5,977.4,15,977.4z"/>
</g>
</svg>
