<svg xmlns="http://www.w3.org/2000/svg" xmlns:xlink="http://www.w3.org/1999/xlink" version="1.1" x="0px" y="0px" viewBox="0 0 95 118.75" enable-background="new 0 0 95 95" xml:space="preserve"><g><path d="M11.678,58.945V35.877c0-0.771,0.627-1.396,1.398-1.396l17.662-0.02c2.08,0,3.766-1.686,3.766-3.766l0.063-17.707   c0-0.771,0.629-1.398,1.398-1.398h23.068c0.771,0,1.398,0.627,1.398,1.398V56.15h4.193V12.988c0-3.084-2.508-5.592-5.592-5.592   H35.965c-3.082,0-5.592,2.508-5.592,5.592v17.297H13.076c-3.084,0-5.592,2.51-5.592,5.592v23.068c0,3.084,2.508,5.592,5.592,5.592   H26.18v-4.193H13.076C12.305,60.344,11.678,59.717,11.678,58.945z"/><path d="M81.924,30.461H68.82v4.195h13.104c0.771,0,1.398,0.627,1.398,1.396v23.07c0,0.77-0.627,1.396-1.398,1.396L64.26,60.537   c-2.08,0-3.766,1.686-3.766,3.766l-0.063,17.709c0,0.771-0.627,1.398-1.398,1.398H35.965c-0.771,0-1.398-0.627-1.398-1.398V38.85   h-4.193v43.162c0,3.084,2.508,5.592,5.592,5.592h23.068c3.084,0,5.592-2.508,5.592-5.592V64.715h17.299   c3.084,0,5.592-2.51,5.592-5.592v-23.07C87.516,32.971,85.008,30.461,81.924,30.461z"/></g><text x="0" y="110" fill="#000000" font-size="5px" font-weight="bold" font-family="'Helvetica Neue', Helvetica, Arial-Unicode, Arial, Sans-serif">Created by Guilherme Furtado</text><text x="0" y="115" fill="#000000" font-size="5px" font-weight="bold" font-family="'Helvetica Neue', Helvetica, Arial-Unicode, Arial, Sans-serif">from the Noun Project</text></svg>