<?xml version="1.0" encoding="utf-8"?>
<!-- Generator: Adobe Illustrator 22.1.0, SVG Export Plug-In . SVG Version: 6.00 Build 0)  -->
<svg version="1.1"
	 id="Ebene_1" xmlns:cc="http://creativecommons.org/ns#" xmlns:dc="http://purl.org/dc/elements/1.1/" xmlns:inkscape="http://www.inkscape.org/namespaces/inkscape" xmlns:rdf="http://www.w3.org/1999/02/22-rdf-syntax-ns#" xmlns:sodipodi="http://sodipodi.sourceforge.net/DTD/sodipodi-0.dtd" xmlns:svg="http://www.w3.org/2000/svg"
	 xmlns="http://www.w3.org/2000/svg" xmlns:xlink="http://www.w3.org/1999/xlink" x="0px" y="0px" viewBox="0 0 100 100.5"
	 style="enable-background:new 0 0 100 100.5;" xml:space="preserve">
<style type="text/css">
	.st0{fill:#36EBB4;}
</style>
<g transform="translate(0,-952.36218)">
	<path class="st0" d="M28.8,958.4c-1,0.1-1.8,1-1.8,2v18c0,1.1,0.9,2,2,2h4v6c0,0.5-0.2,0.8-1.1,1.4c-0.9,0.6-2.3,1.4-3.8,2.2
		c-1.5,0.8-3.2,1.8-4.6,3.2c-1.4,1.5-2.4,3.5-2.4,6l-0.1,45.1c0,1.1,0.9,2,2,2h54c1.1,0,2-0.9,2-2l-0.1-45.1c0-2.5-1-4.6-2.4-6
		c-1.4-1.5-3.1-2.4-4.6-3.2c-1.5-0.8-3-1.5-3.8-2.2c-0.9-0.6-1.1-0.9-1.1-1.4c0-1.1-0.9-2-2-2c-1.1,0-2,0.9-2,2c0,0,0,0,0,0.1
		c0,2.1,1.3,3.6,2.7,4.7c1.4,1,2.9,1.7,4.3,2.5c1.4,0.8,2.7,1.6,3.6,2.5c0.9,0.9,1.3,1.8,1.3,3.3v3.1H25.1v-3.1
		c0-1.5,0.5-2.4,1.3-3.3c0.9-0.9,2.2-1.7,3.6-2.5c1.4-0.8,3-1.5,4.3-2.5c1.4-1,2.7-2.6,2.7-4.7v-6h34c1.1,0,2-0.9,2-2v-18
		c0-1.1-0.9-2-2-2H29C28.9,958.4,28.9,958.4,28.8,958.4z M31,962.4h38v14H31V962.4z M25.1,1006.4h49.9l0,22H25L25.1,1006.4z
		 M35.8,1015.4c-1.1,0.1-2,1-1.9,2.1c0.1,1.1,1,2,2.1,1.9h28c1.1,0,2-0.9,2-2c0-1.1-0.9-2-2-2c0,0,0,0-0.1,0H36
		C35.9,1015.4,35.9,1015.4,35.8,1015.4z M25,1032.4h50v10H25V1032.4z"/>
</g>
</svg>
